<svg width="149" height="30" viewBox="0 0 149 30" fill="none" xmlns="http://www.w3.org/2000/svg">
<path d="M44.825 24.3C43.8083 24.3 42.8917 24.1333 42.075 23.8C41.275 23.45 40.5833 22.9083 40 22.175C39.4333 21.4417 38.9917 20.5083 38.675 19.375C38.375 18.225 38.225 16.8583 38.225 15.275C38.225 13.6917 38.375 12.3333 38.675 11.2C38.9917 10.05 39.4333 9.10833 40 8.375C40.5833 7.64167 41.275 7.10833 42.075 6.775C42.8917 6.425 43.8083 6.25 44.825 6.25C46.3083 6.25 47.4917 6.575 48.375 7.225C49.275 7.85833 49.9917 8.81667 50.525 10.1L48.275 11.35C47.975 10.3667 47.55 9.65833 47 9.225C46.4667 8.79167 45.7417 8.575 44.825 8.575C43.6417 8.575 42.7167 8.98333 42.05 9.8C41.4 10.6167 41.075 11.7417 41.075 13.175V17.375C41.075 18.8083 41.4 19.9333 42.05 20.75C42.7167 21.5667 43.6417 21.975 44.825 21.975C45.7583 21.975 46.5083 21.7417 47.075 21.275C47.6583 20.8083 48.1083 20.0583 48.425 19.025L50.625 20.325C50.075 21.6083 49.3417 22.5917 48.425 23.275C47.5083 23.9583 46.3083 24.3 44.825 24.3ZM55.6311 24C54.7311 24 54.0811 23.8 53.6811 23.4C53.2811 22.9833 53.0811 22.3417 53.0811 21.475V5.5H55.6561V21.875H57.2061V24H55.6311ZM60.8752 8.525C59.8419 8.525 59.3252 8.08333 59.3252 7.2V6.75C59.3252 5.86667 59.8419 5.425 60.8752 5.425C61.9085 5.425 62.4252 5.86667 62.4252 6.75V7.2C62.4252 8.08333 61.9085 8.525 60.8752 8.525ZM59.6002 11H62.1752V24H59.6002V11ZM70.1537 24.3C68.4537 24.3 67.1454 23.7583 66.2287 22.675C65.312 21.5917 64.8537 19.8667 64.8537 17.5C64.8537 15.1333 65.312 13.4083 66.2287 12.325C67.1454 11.2417 68.4537 10.7 70.1537 10.7C71.4037 10.7 72.4037 10.9917 73.1537 11.575C73.9037 12.1417 74.4454 12.9 74.7787 13.85L72.6537 14.85C72.5037 14.2 72.2287 13.7083 71.8287 13.375C71.4454 13.025 70.887 12.85 70.1537 12.85C68.437 12.85 67.5787 13.8917 67.5787 15.975V19.025C67.5787 21.1083 68.437 22.15 70.1537 22.15C70.9037 22.15 71.487 21.975 71.9037 21.625C72.337 21.2583 72.6704 20.725 72.9037 20.025L74.8537 21.1C74.4704 22.1167 73.887 22.9083 73.1037 23.475C72.337 24.025 71.3537 24.3 70.1537 24.3ZM77.1777 5.5H79.7527V14.475L79.5777 17.1H79.8527L81.5027 14.675L84.3527 11H87.3277L83.1777 16.15L87.6027 24H84.6527L81.3527 17.775L79.7527 19.7V24H77.1777V5.5ZM89.7795 24V6.55H99.6545V8.875H92.4295V13.975H98.8295V16.275H92.4295V24H89.7795ZM108.984 21.85H108.659C108.142 23.4833 107.067 24.3 105.434 24.3C104.284 24.3 103.384 23.9083 102.734 23.125C102.1 22.325 101.784 21.1583 101.784 19.625V11H104.359V19.275C104.359 21.1583 105.092 22.1 106.559 22.1C107.225 22.1 107.792 21.9 108.259 21.5C108.742 21.0833 108.984 20.5083 108.984 19.775V11H111.559V24H108.984V21.85ZM119.793 24.3C118.977 24.3 118.227 24.1667 117.543 23.9C116.86 23.6333 116.277 23.225 115.793 22.675C115.31 22.1083 114.927 21.4 114.643 20.55C114.377 19.7 114.243 18.6833 114.243 17.5C114.243 16.3167 114.368 15.3 114.618 14.45C114.868 13.5833 115.227 12.875 115.693 12.325C116.177 11.775 116.743 11.3667 117.393 11.1C118.06 10.8333 118.81 10.7 119.643 10.7C121.293 10.7 122.577 11.2417 123.493 12.325C124.427 13.4083 124.893 15.1333 124.893 17.5V18.15H116.943V18.975C116.943 20.0083 117.202 20.8 117.718 21.35C118.252 21.9 118.977 22.175 119.893 22.175C120.677 22.175 121.318 22 121.818 21.65C122.335 21.3 122.768 20.8083 123.118 20.175L124.618 21.6C124.152 22.4167 123.518 23.075 122.718 23.575C121.935 24.0583 120.96 24.3 119.793 24.3ZM119.643 12.75C118.777 12.75 118.11 13.0167 117.643 13.55C117.177 14.0667 116.943 14.85 116.943 15.9V16.425H122.168V15.9C122.168 13.8 121.327 12.75 119.643 12.75ZM130.143 24C129.243 24 128.593 23.8 128.193 23.4C127.793 22.9833 127.593 22.3417 127.593 21.475V5.5H130.168V21.875H131.718V24H130.143Z" fill="#F9FDFF"/>
<path d="M8.23638 27.289C6.8594 25.7242 5.48247 24.0969 4.60618 22.1566C3.72995 20.0912 3.47957 17.7128 3.91772 15.4596C4.35586 13.2064 5.35725 11.0783 6.79685 9.26324C6.67169 10.828 7.23499 12.4553 8.29899 13.6445C7.67308 10.6402 8.67453 7.38556 10.6774 5.00719C12.6802 2.62881 15.4342 1.064 18.3133 0C16.8737 1.50214 16.6859 3.88052 17.2493 5.88342C17.8126 7.88626 19.0018 9.63878 20.0658 11.4539C21.1298 13.2689 22.1312 15.1466 22.1938 17.2121C22.7571 16.1481 23.383 15.084 23.7586 13.8948C24.1341 12.7056 24.3219 11.4539 24.009 10.2646C25.1356 11.6416 25.7615 13.0185 26.0744 14.7711C26.3873 16.5236 26.3248 18.3387 26.137 20.0912C25.8866 22.0315 25.3859 24.0343 24.3219 25.6616C23.0702 27.6019 21.0673 28.9788 18.8767 29.7299C14.996 30.4184 11.1781 29.8551 8.23638 27.289Z" fill="#F3705A"/>
<path d="M12.9932 29.6047C18.1254 31.6076 23.1952 25.5365 20.3787 20.8423C20.3787 20.7796 20.3161 20.7796 20.3161 20.7171C20.5664 23.2832 19.9405 25.1609 18.7513 26.225C19.3772 24.7228 18.9391 22.9703 18.188 21.4682C17.4369 20.0286 16.3729 18.7143 15.5592 17.3373C14.7456 15.8977 14.1197 14.2704 14.4952 12.6431C12.9931 13.7697 11.9291 15.4596 11.491 17.2747C11.0528 19.0897 11.3032 21.0926 12.1169 22.7825C11.178 22.0941 10.4896 20.9675 10.427 19.7783C9.42551 20.9675 8.79965 22.5322 8.8622 24.0969C8.86226 26.5379 10.8025 28.7285 12.9932 29.6047Z" fill="#FFD15C"/>
</svg>
