<svg width="33" height="30" viewBox="0 0 33 30" fill="none" xmlns="http://www.w3.org/2000/svg">
<g style="mix-blend-mode:luminosity">
<path d="M13.6717 15.0334V14.103L14.669 14.6014L15.0186 13.9026L14.058 13.4225L14.6698 13.0147L14.2365 12.3647L13.2533 13.0202L12.5303 12.6584L13.8733 11.8526L13.4713 11.1827L11.7022 12.244L10.9682 11.8768L12.3112 11.0709C12.4276 11.001 12.4998 10.8737 12.4998 10.7366C12.4998 10.5995 12.4276 10.4721 12.3104 10.4018L10.9674 9.59595L11.7014 9.22876L13.4705 10.2901L13.8725 9.62017L12.5295 8.81431L13.2526 8.45259L14.2358 9.10806L14.669 8.45806L14.0573 8.05024L15.0178 7.57017L14.6682 6.87134L13.6717 7.37017V6.4397H12.8905V7.76079L12.1092 8.15142V6.4397H11.328V8.54204L10.5467 8.93267V6.83032C10.5467 6.68618 10.4674 6.55376 10.3405 6.48579C10.2143 6.41782 10.0588 6.42563 9.93967 6.50532L8.20295 7.66313V6.6229L10.4065 4.78657L9.90608 4.18657L8.20295 5.60571V4.64829L9.26038 3.59087L8.70803 3.03853L8.20295 3.5436V2.92407H7.4217V3.5436L6.91663 3.03853L6.36428 3.59087L7.4217 4.64829V5.60571L5.71897 4.18657L5.21858 4.78657L7.4217 6.6229V7.66313L5.68538 6.50532C5.56545 6.42524 5.41116 6.41782 5.2846 6.48579C5.15725 6.55376 5.07795 6.68618 5.07795 6.83032V8.93267L4.2967 8.54204V6.4397H3.51545V8.15142L2.7342 7.76079V6.4397H1.95295V7.37017L0.955689 6.87173L0.606079 7.57056L1.56663 8.05063L0.954907 8.45845L1.38811 9.10845L2.37131 8.45298L3.09436 8.8147L1.75139 9.62056L2.15334 10.2905L3.92249 9.22915L4.65647 9.59634L3.3135 10.4022C3.19709 10.4721 3.12483 10.5995 3.12483 10.7366C3.12483 10.8737 3.19709 11.001 3.31428 11.0713L4.65725 11.8772L3.92327 12.2444L2.15413 11.1831L1.75217 11.853L3.09514 12.6588L2.37209 13.0206L1.38889 12.3651L0.955689 13.0151L1.56741 13.4229L0.60686 13.903L0.95647 14.6018L1.95295 14.103V15.0334H2.7342V13.7124L3.51545 13.3217V15.0334H4.2967V12.9311L5.07795 12.5405V14.6428C5.07795 14.787 5.15725 14.9194 5.2842 14.9874C5.41077 15.0549 5.56545 15.0475 5.68499 14.9678L7.4217 13.81V14.8502L5.21819 16.6866L5.71858 17.2866L7.4217 15.8674V16.8249L6.36428 17.8823L6.91663 18.4346L7.4217 17.9295V18.5491H8.20295V17.9295L8.70803 18.4346L9.26038 17.8823L8.20295 16.8249V15.8674L9.90569 17.2866L10.4061 16.6866L8.20295 14.8502V13.81L9.93928 14.9678C10.0045 15.0116 10.0803 15.0334 10.1561 15.0334C10.2194 15.0334 10.2826 15.0182 10.3405 14.9874C10.4674 14.9194 10.5467 14.787 10.5467 14.6428V12.5405L11.328 12.9311V15.0334H12.1092V13.3217L12.8905 13.7124V15.0334H13.6717ZM11.3502 10.7366L10.1393 11.4631L8.68577 10.7366L10.1389 10.01L11.3502 10.7366ZM9.76546 7.5604V9.32329L8.20295 10.1045V8.60181L9.76546 7.5604ZM5.8592 7.5604L7.4217 8.6022V10.1049L5.8592 9.32368V7.5604ZM4.27444 10.7366L5.48538 10.01L6.9385 10.7366L5.48538 11.4631L4.27444 10.7366ZM5.8592 13.9127V12.1499L7.4217 11.3686V12.8713L5.8592 13.9127ZM9.76546 13.9127L8.20295 12.8709V11.3682L9.76546 12.1495V13.9127Z" fill="#A6D7FF"/>
<path d="M28.3304 23.7513L27.8972 23.1013L26.7995 23.8333L25.857 23.4294L26.7265 22.9946C26.8581 22.9282 26.9417 22.7931 26.9417 22.645C26.9417 22.497 26.8581 22.3618 26.7257 22.2954L25.8562 21.8606L26.7988 21.4567L27.8964 22.1888L28.3296 21.5388L27.6558 21.0896L28.6573 20.6603L28.3499 19.9423L27.3323 20.3786V19.52H26.5511V20.7134L25.3792 21.2157V19.9106C25.3792 19.781 25.3148 19.6599 25.2077 19.5872C25.1003 19.5142 24.9632 19.4997 24.8437 19.5478L23.4261 20.1149V18.9802L24.7726 18.3067L24.423 17.6079L23.4261 18.1067V16.7856H22.6448V18.1067L21.6476 17.6083L21.298 18.3071L22.6448 18.9802V20.1149L21.2273 19.5478C21.1081 19.5001 20.9714 19.5146 20.8632 19.5872C20.7562 19.6599 20.6917 19.781 20.6917 19.9106V21.2157L19.5198 20.7134V19.52H18.7386V20.3786L17.7206 19.9423L17.4132 20.6603L18.4148 21.0896L17.7409 21.5388L18.1741 22.1888L19.2718 21.4567L20.2144 21.8606L19.3448 22.2954C19.2128 22.3618 19.1292 22.497 19.1292 22.645C19.1292 22.7931 19.2128 22.9282 19.3452 22.9946L20.2148 23.4294L19.2722 23.8333L18.1745 23.1013L17.7413 23.7513L18.4152 24.2005L17.4136 24.6298L17.721 25.3478L18.7386 24.9114V25.77H19.5198V24.5767L20.6917 24.0743V25.3794C20.6917 25.5091 20.7562 25.6302 20.8632 25.7028C20.9288 25.7474 21.0054 25.77 21.0823 25.77C21.1316 25.77 21.1808 25.761 21.2273 25.7423L22.6448 25.1751V26.3099L21.2984 26.9833L21.648 27.6821L22.6448 27.1833V28.5044H23.4261V27.1833L24.4234 27.6817L24.773 26.9829L23.4261 26.3099V25.1751L24.8437 25.7423C24.8902 25.761 24.9394 25.77 24.9886 25.77C25.0656 25.77 25.1421 25.7474 25.2077 25.7028C25.3148 25.6302 25.3792 25.5091 25.3792 25.3794V24.0743L26.5511 24.5767V25.77H27.3323V24.9114L28.3503 25.3478L28.6577 24.6298L27.6562 24.2005L28.3304 23.7513ZM25.6777 22.645L24.9159 23.0259L24.0269 22.645L24.9156 22.2642L25.6777 22.645ZM24.598 20.4876V21.5505L23.4261 22.0528V20.9563L24.598 20.4876ZM21.473 20.4876L22.6448 20.9563V22.0528L21.473 21.5505V20.4876ZM20.3933 22.645L21.155 22.2642L22.0441 22.645L21.1554 23.0259L20.3933 22.645ZM21.473 24.8024V23.7396L22.6448 23.2372V24.3337L21.473 24.8024ZM24.598 24.8024L23.4261 24.3337V23.2372L24.598 23.7396V24.8024Z" fill="#A6D7FF"/>
<path d="M23.5246 7.3918L24.077 7.94414L25.3438 6.67734V8.46875H26.125V6.67734L27.3918 7.94414L27.9441 7.3918L26.6773 6.125H28.4688V5.34375H26.6773L27.9441 4.07695L27.3918 3.52461L26.125 4.79141V3H25.3438V4.79141L24.077 3.52461L23.5246 4.07695L24.7914 5.34375H23V6.125H24.7914L23.5246 7.3918Z" fill="#A6D7FF"/>
<path d="M7.3285 23.3785L6.6215 22.6715L5 24.293V22H4V24.293L2.3785 22.6715L1.6715 23.3785L3.293 25H1V26H3.293L1.6715 27.6215L2.3785 28.3285L4 26.707V29H5V26.707L6.6215 28.3285L7.3285 27.6215L5.707 26H8V25H5.707L7.3285 23.3785Z" fill="#A6D7FF"/>
<path d="M17.8347 11.5178C18.2662 11.5178 18.616 11.168 18.616 10.7366C18.616 10.3051 18.2662 9.95532 17.8347 9.95532C17.4032 9.95532 17.0535 10.3051 17.0535 10.7366C17.0535 11.168 17.4032 11.5178 17.8347 11.5178Z" fill="#A6D7FF"/>
<path d="M26.5511 15.4241C26.9826 15.4241 27.3324 15.0743 27.3324 14.6428C27.3324 14.2113 26.9826 13.8616 26.5511 13.8616C26.1197 13.8616 25.7699 14.2113 25.7699 14.6428C25.7699 15.0743 26.1197 15.4241 26.5511 15.4241Z" fill="#A6D7FF"/>
<path d="M10.5468 23.2366C10.9782 23.2366 11.328 22.8868 11.328 22.4553C11.328 22.0238 10.9782 21.6741 10.5468 21.6741C10.1153 21.6741 9.7655 22.0238 9.7655 22.4553C9.7655 22.8868 10.1153 23.2366 10.5468 23.2366Z" fill="#A6D7FF"/>
<path d="M2.73425 18.1584C3.16572 18.1584 3.5155 17.8087 3.5155 17.3772C3.5155 16.9457 3.16572 16.5959 2.73425 16.5959C2.30278 16.5959 1.953 16.9457 1.953 17.3772C1.953 17.8087 2.30278 18.1584 2.73425 18.1584Z" fill="#A6D7FF"/>
</g>
</svg>
